<svg width="177" height="156" viewBox="0 0 177 156" fill="none" xmlns="http://www.w3.org/2000/svg">
<path d="M118 104L88.5 78L59 104" stroke="black" stroke-width="2" stroke-linecap="round" stroke-linejoin="round"/>
<path d="M88.5 78V136.5" stroke="black" stroke-width="2" stroke-linecap="round" stroke-linejoin="round"/>
<path d="M150.376 119.535C157.569 116.079 163.252 110.61 166.527 103.991C169.801 97.3724 170.482 89.981 168.461 82.9835C166.44 75.986 161.833 69.7808 155.367 65.3474C148.9 60.914 140.943 58.5048 132.75 58.5H123.458C121.225 50.8901 117.065 43.8252 111.288 37.8365C105.512 31.8478 98.2707 27.091 90.1085 23.924C81.9462 20.7569 73.0756 19.2619 64.1634 19.5513C55.2512 19.8407 46.5294 21.907 38.6537 25.5948C30.778 29.2827 23.9534 34.4962 18.6928 40.8433C13.4323 47.1904 9.87285 54.506 8.28199 62.2401C6.69113 69.9742 7.11029 77.9255 9.50796 85.4962C11.9056 93.067 16.2194 100.06 22.125 105.95" stroke="black" stroke-width="2" stroke-linecap="round" stroke-linejoin="round"/>
<path d="M118 104L88.5 78L59 104" stroke="black" stroke-width="2" stroke-linecap="round" stroke-linejoin="round"/>
</svg>
